<svg xmlns="http://www.w3.org/2000/svg" id="Ebene_2" data-name="Ebene 2" viewBox="0 0 144.41 30"><defs><style>.cls-1{fill:#ea590c}.cls-2{fill:#11182a}</style></defs><g id="Ebene_1-2" data-name="Ebene 1"><path d="M47.06 8.65h2.19l4.58 12.6h-1.98l-.87-2.39h-5.64l-.86 2.39h-1.99l4.58-12.6Zm-1.03 8.33h4.26l-2.13-5.85-2.12 5.85ZM55.3 21.25v-9h1.87v.95c.31-.37.7-.67 1.15-.88.46-.22.95-.32 1.48-.32.34 0 .67.04 1 .13l-.75 1.89c-.23-.09-.47-.13-.7-.13-.4 0-.76.1-1.09.29-.33.19-.59.46-.79.79-.2.33-.3.7-.3 1.1v5.18H55.3ZM67.27 18.69l1.67.91a4.64 4.64 0 0 1-1.55 1.37c-.63.34-1.31.51-2.04.51-.83 0-1.58-.21-2.26-.64-.68-.43-1.22-1-1.63-1.71-.4-.72-.61-1.51-.61-2.38 0-.66.12-1.28.35-1.85.23-.57.56-1.08.97-1.51s.89-.78 1.44-1.02 1.13-.37 1.75-.37c.73 0 1.41.17 2.04.51.63.34 1.14.8 1.55 1.38l-1.67.91c-.25-.3-.55-.53-.88-.69-.34-.16-.68-.24-1.04-.24-.49 0-.94.13-1.34.4-.4.27-.71.62-.95 1.05s-.35.91-.35 1.43.12.98.35 1.42c.23.44.55.78.95 1.05.4.26.84.4 1.33.4.37 0 .73-.08 1.06-.25s.62-.39.85-.67ZM78.45 15.61v5.64h-1.87v-5.18c0-.4-.1-.77-.29-1.1-.2-.33-.46-.59-.78-.79-.33-.2-.69-.29-1.1-.29s-.76.1-1.09.29c-.33.19-.59.46-.79.79-.2.33-.3.7-.3 1.1v5.18h-1.87V7.75h1.87v5.45c.31-.37.7-.67 1.15-.88.46-.22.95-.32 1.48-.32.67 0 1.27.16 1.82.49.55.32.98.76 1.3 1.31.32.55.48 1.15.48 1.82ZM81.21 10.94c-.29 0-.53-.09-.72-.28s-.29-.42-.29-.7.1-.51.29-.7.43-.28.71-.28.51.09.7.28c.19.19.29.42.29.7s-.09.52-.28.7-.42.28-.7.28Zm-.95 1.31h1.87v9h-1.87v-9ZM89.22 21.25h-2.4l-3.29-9.02h2l2.48 6.86 2.49-6.86h1.99l-3.28 9.02ZM97.5 21.48c-.83 0-1.58-.21-2.26-.64-.68-.43-1.22-1-1.63-1.71-.4-.72-.61-1.51-.61-2.38 0-.66.12-1.28.35-1.85.23-.57.56-1.08.97-1.51s.89-.78 1.44-1.02 1.13-.37 1.75-.37c.69 0 1.32.14 1.9.43.58.29 1.07.68 1.48 1.18.41.5.71 1.08.9 1.73s.25 1.34.17 2.07h-6.94c.08.41.23.79.45 1.12s.51.6.86.79c.35.19.74.29 1.17.3.46 0 .87-.11 1.25-.34s.68-.54.92-.94l1.9.44c-.36.8-.9 1.45-1.63 1.96-.73.51-1.54.76-2.44.76Zm-2.56-5.51h5.11a2.7 2.7 0 0 0-.45-1.17c-.24-.35-.55-.63-.91-.84s-.76-.31-1.19-.31-.82.1-1.18.31c-.36.2-.66.48-.9.83s-.39.75-.47 1.18Z" class="cls-2"/><path d="m103.06 21.25 2.45-12.6h1.82l3.07 8.07 3.07-8.07h1.82l2.45 12.6h-2.24l-1.51-7.79-2.83 7.51h-1.5l-2.83-7.51-1.5 7.79h-2.24ZM125.72 12.25h2.2v9h-2.2l-.1-1.12c-.25.4-.57.73-.98.98-.4.25-.88.37-1.44.37-.67 0-1.29-.13-1.87-.38s-1.09-.6-1.53-1.04c-.44-.44-.79-.96-1.04-1.54s-.37-1.21-.37-1.87.12-1.24.36-1.81c.24-.56.57-1.06.99-1.48s.92-.76 1.48-1a4.52 4.52 0 0 1 1.8-.36c.59 0 1.13.13 1.6.4.47.26.87.6 1.2 1.01l-.1-1.15Zm-2.57 7.12c.47 0 .88-.12 1.24-.35s.64-.55.85-.95c.2-.4.31-.84.31-1.32s-.1-.93-.31-1.33c-.2-.4-.49-.72-.85-.95-.36-.23-.78-.35-1.24-.35s-.88.12-1.26.36-.68.55-.91.95c-.23.4-.34.84-.34 1.32s.11.93.34 1.32c.23.4.53.71.91.94s.8.35 1.26.35ZM134.54 14.45h-1.75v6.8h-2.2v-6.8h-1.33v-2.2h1.33V9.42h2.2v2.83h1.75v2.2ZM139.92 21.48c-.83 0-1.58-.21-2.26-.64a4.807 4.807 0 0 1-2.24-4.1c0-.65.12-1.27.35-1.84.23-.57.56-1.08.97-1.51s.89-.78 1.44-1.02 1.13-.37 1.75-.37c.7 0 1.35.15 1.93.45.58.3 1.08.7 1.49 1.22s.71 1.1.89 1.76c.19.66.23 1.35.13 2.07h-6.58c.08.34.22.64.41.9.19.27.44.48.73.64.29.16.63.24 1 .25.38 0 .73-.09 1.05-.27s.58-.45.79-.77l2.24.52c-.37.8-.91 1.45-1.64 1.96-.73.51-1.54.76-2.44.76Zm-2.21-5.63h4.43c-.07-.36-.21-.69-.42-.98s-.48-.52-.79-.7a2.08 2.08 0 0 0-2.01 0c-.31.17-.57.4-.78.69-.21.29-.36.62-.44.99ZM27.5 0h-25A2.5 2.5 0 0 0 0 2.5v25A2.5 2.5 0 0 0 2.5 30h25a2.5 2.5 0 0 0 2.5-2.5v-25A2.5 2.5 0 0 0 27.5 0Zm0 27.5h-25v-6.25h4.48L10 24.27c.47.47 1.1.73 1.77.73h6.47c.66 0 1.3-.26 1.77-.73l3.02-3.02h4.48v6.25Z" class="cls-1"/></g></svg>